<?xml version="1.0" encoding="UTF-8"?>
<svg xmlns="http://www.w3.org/2000/svg" width="1200" height="630" viewBox="0 0 1200 630">
  <defs>
    <linearGradient id="bg" x1="0" y1="0" x2="1" y2="1">
      <stop offset="0%" stop-color="#050505" />
      <stop offset="100%" stop-color="#15181b" />
    </linearGradient>
    <linearGradient id="trace" x1="0" y1="0" x2="1" y2="1">
      <stop offset="0%" stop-color="#77f6c9" />
      <stop offset="100%" stop-color="#d9e7e1" />
    </linearGradient>
    <filter id="glow" x="-20%" y="-20%" width="140%" height="140%">
      <feGaussianBlur stdDeviation="7" result="blur" />
      <feMerge>
        <feMergeNode in="blur" />
        <feMergeNode in="SourceGraphic" />
      </feMerge>
    </filter>
  </defs>
  
    <rect width="1200" height="630" fill="url(#bg)" />
    
  <g opacity="0.22">
    <path d="M 96 94 H 1104" stroke="rgba(255,255,255,0.12)" stroke-width="2" />
    <path d="M 96 536 H 1104" stroke="rgba(255,255,255,0.12)" stroke-width="2" />
    <path d="M 96 94 V 536" stroke="rgba(255,255,255,0.12)" stroke-width="2" />
    <path d="M 1104 94 V 536" stroke="rgba(255,255,255,0.12)" stroke-width="2" />
  </g>
  <g opacity="0.28">
    <path d="M 176 210 H 980 V 360 H 504 V 538 H 912 V 390 H 176" fill="none" stroke="rgba(255,255,255,0.08)" stroke-width="5" />
    <path d="M 236 280 H 696 V 430 H 384 V 640 H 792" fill="none" stroke="url(#trace)" stroke-width="8" filter="url(#glow)" />
  </g>

    <path d="M 102 120 H 632 V 232 H 420 V 356 H 862 V 510 H 1084" fill="none" stroke="rgba(255,255,255,0.1)" stroke-width="8" />
    <path d="M 132 154 H 564 V 252 H 360 V 386 H 808 V 472 H 1016" fill="none" stroke="url(#trace)" stroke-width="12" filter="url(#glow)" />
    <g transform="translate(866 104) scale(0.46)">
      <rect width="512" height="512" fill="none" />
      <rect x="46" y="46" width="420" height="420" rx="34" fill="rgba(10,11,12,0.84)" stroke="rgba(255,255,255,0.1)" />
      
  <rect x="78" y="78" width="356" height="356" rx="28.48" fill="none" stroke="rgba(255,255,255,0.1)" stroke-width="3" />
  <path d="M 142.07999999999998 127.84 H 334.32 V 206.16 H 227.51999999999998 V 284.48 H 355.68 V 369.91999999999996 H 142.07999999999998" fill="none" stroke="url(#trace)" stroke-width="17.8" stroke-linecap="square" stroke-linejoin="miter" filter="url(#glow)" />
  <path d="M 191.92000000000002 127.84 V 177.68 M 284.48 284.48 V 334.32 M 142.07999999999998 248.88 H 184.8" fill="none" stroke="#f4efe6" stroke-width="9.256" stroke-linecap="square" />
  <circle cx="142.07999999999998" cy="369.91999999999996" r="10.68" fill="#f4efe6" />
  <circle cx="334.32" cy="127.84" r="10.68" fill="#77f6c9" />

    </g>
    <text x="100" y="446" fill="#f4efe6" font-size="124" font-family="Arial Black, Arial, Helvetica, sans-serif" letter-spacing="6">PARADOX TRELLO</text>
    <text x="104" y="502" fill="#9da5ad" font-size="24" font-family="Arial, Helvetica, sans-serif" letter-spacing="7">OFFICIAL BOARD / OFFICIAL DISCORD / OFFICIAL ROBLOX PAGE</text>
    <rect x="104" y="534" width="430" height="8" fill="#77f6c9" />
  
</svg>